<?xml version="1.0" standalone="no"?>
<!DOCTYPE svg PUBLIC "-//W3C//DTD SVG 20010904//EN"
 "http://www.w3.org/TR/2001/REC-SVG-20010904/DTD/svg10.dtd">
<svg version="1.0" xmlns="http://www.w3.org/2000/svg"
 width="512.000000pt" height="512.000000pt" viewBox="0 0 512.000000 512.000000"
 preserveAspectRatio="xMidYMid meet">
<metadata>
Created by potrace 1.16, written by Peter Selinger 2001-2019
</metadata>
<g transform="translate(0.000000,512.000000) scale(0.100000,-0.100000)"
fill="#ffffff" stroke="none">
<path d="M2493 4348 c-27 -35 -67 -89 -88 -120 -27 -39 -52 -62 -76 -72 -32
-13 -45 -31 -110 -150 -56 -104 -78 -134 -89 -129 -8 4 -76 8 -150 9 -74 2
-151 6 -171 9 -29 6 -41 2 -63 -17 l-27 -23 153 3 c84 2 178 2 208 0 l55 -3
-59 -28 c-32 -15 -60 -35 -63 -45 -2 -9 -14 -42 -26 -72 -16 -40 -27 -55 -41
-55 -13 0 -29 -18 -50 -57 -23 -42 -37 -58 -52 -58 -12 0 -33 -9 -47 -20 -14
-12 -32 -17 -42 -14 -19 8 -189 -152 -242 -226 -17 -25 -68 -78 -112 -118
l-81 -74 -32 27 -31 27 -206 -210 c-113 -115 -266 -262 -339 -327 -73 -65
-131 -120 -128 -122 7 -7 231 165 338 260 53 48 129 124 169 169 108 125 113
127 34 13 -65 -93 -62 -96 14 -15 39 41 79 93 89 114 19 39 19 39 31 17 10
-18 10 -26 -1 -39 -12 -15 -11 -16 5 -3 21 17 22 39 0 63 -31 34 -6 28 48 -13
30 -22 81 -54 114 -71 75 -38 72 -34 50 -58 -17 -19 -19 -19 -31 -2 -11 15
-14 12 -20 -26 -4 -25 -11 -41 -18 -39 -6 3 -10 9 -9 15 1 5 -8 32 -21 58
l-24 49 -7 -30 c-3 -16 -11 -40 -16 -53 -5 -13 -7 -27 -4 -32 3 -4 -2 -13 -10
-20 -8 -7 -15 -18 -15 -25 0 -17 -37 -48 -48 -41 -5 3 -12 20 -16 38 -9 42
-21 23 -30 -47 -4 -27 -12 -70 -18 -94 l-11 -43 -14 33 c-8 20 -10 35 -4 37 5
2 3 15 -5 30 -8 15 -14 35 -14 44 0 31 -18 28 -25 -4 -4 -18 -14 -45 -21 -60
-10 -20 -11 -28 -3 -28 8 0 8 -4 -1 -15 -23 -28 -49 -18 -55 23 -4 20 -12 51
-18 69 l-11 32 -13 -37 c-8 -20 -14 -46 -15 -57 -1 -11 -8 -28 -17 -38 -13
-16 -13 -19 -1 -27 12 -7 12 -12 2 -22 -6 -6 -12 -21 -12 -33 0 -12 -5 -26
-12 -33 -8 -8 -9 -12 -1 -12 8 0 8 -8 0 -30 -7 -17 -19 -30 -29 -30 -23 0 -34
20 -17 31 11 7 11 9 -3 9 -10 0 -16 7 -16 18 1 9 -5 37 -11 62 -10 35 -15 41
-22 28 -11 -19 -30 -104 -30 -130 0 -10 -4 -20 -10 -23 -5 -4 -9 -13 -9 -22 0
-9 -10 -27 -22 -41 -22 -23 -22 -24 -5 -37 18 -13 18 -15 -4 -45 -20 -26 -21
-32 -9 -40 12 -7 12 -12 -3 -28 -9 -10 -17 -25 -17 -33 0 -8 -32 -43 -71 -79
-124 -113 -77 -100 109 30 96 66 197 135 225 153 155 99 336 180 497 223 55
15 98 29 96 32 -6 5 -201 -27 -232 -38 -22 -9 -23 -8 -26 86 -2 52 0 94 5 94
4 0 7 -38 7 -85 0 -47 3 -85 8 -85 4 0 17 6 28 14 80 57 264 60 399 8 100 -39
245 -122 259 -148 6 -10 15 -22 20 -25 5 -4 -1 -12 -14 -19 -16 -9 -19 -15
-11 -23 8 -8 5 -14 -11 -24 l-23 -12 25 -1 c24 0 24 -1 -8 -20 -25 -16 -37
-18 -52 -10 -14 8 -20 8 -20 0 0 -6 -5 -8 -10 -5 -8 5 -7 12 2 22 10 12 9 18
-7 29 -10 8 -16 14 -12 14 4 0 1 14 -8 30 -9 17 -19 30 -23 30 -13 0 -36 -44
-33 -64 1 -10 -8 -29 -20 -42 -19 -20 -20 -24 -6 -24 23 0 22 -17 -2 -25 -10
-3 -29 -26 -41 -51 -13 -25 -27 -47 -32 -50 -5 -3 -17 14 -27 38 l-18 43 -17
-39 c-9 -21 -16 -49 -16 -62 0 -12 -5 -26 -11 -30 -6 -3 -9 -14 -6 -25 3 -10
-3 -25 -14 -35 -15 -14 -21 -14 -34 -4 -8 7 -14 18 -13 24 4 15 -33 96 -43 96
-7 0 -23 -37 -21 -50 0 -3 -4 -13 -9 -22 -5 -10 -10 -34 -11 -53 -1 -28 -5
-35 -21 -35 -16 0 -17 -3 -8 -14 9 -10 9 -16 1 -21 -6 -4 -8 -15 -5 -26 5 -14
2 -19 -12 -19 -15 0 -16 -2 -3 -10 13 -9 12 -13 -8 -28 -14 -11 -21 -24 -17
-34 4 -9 1 -19 -4 -23 -6 -3 -9 -11 -5 -16 3 -6 -1 -16 -9 -22 -9 -7 -17 -23
-19 -36 -4 -34 -28 -40 -28 -7 0 13 -4 28 -10 31 -5 3 -9 20 -8 38 0 18 -6 48
-14 67 l-15 35 -8 -45 c-11 -54 -9 -48 -24 -85 l-13 -30 -10 25 c-6 14 -11 34
-12 45 -4 35 -18 85 -26 90 -4 2 -13 -15 -20 -38 -6 -23 -16 -47 -22 -54 -5
-7 -7 -21 -3 -33 4 -12 2 -27 -5 -35 -8 -10 -8 -15 0 -20 8 -5 6 -13 -6 -26
-13 -14 -14 -19 -4 -19 11 0 11 -3 2 -12 -20 -20 -14 -48 11 -48 21 0 20 -1
-8 -25 -23 -19 -27 -27 -16 -33 10 -8 8 -13 -10 -25 -21 -15 -23 -15 -35 1 -8
9 -14 26 -14 37 -2 31 -26 90 -32 79 -3 -5 -9 -25 -13 -44 -4 -19 -12 -40 -17
-47 -5 -7 -7 -21 -3 -33 4 -12 2 -20 -5 -20 -7 0 -9 -8 -5 -20 3 -11 2 -20 -4
-20 -5 0 -11 -7 -13 -15 -2 -9 -38 -31 -81 -50 -78 -33 -222 -114 -215 -120 2
-2 67 10 145 25 233 47 365 63 493 57 122 -5 230 -30 230 -53 0 -11 -10 -45
-36 -123 -3 -11 -7 -11 -20 -1 -8 7 -13 19 -10 26 6 15 -23 94 -34 94 -8 0
-37 -73 -44 -110 -2 -14 -5 -27 -6 -30 -2 -3 -2 -8 -2 -11 1 -3 -45 -17 -101
-31 -129 -32 -249 -80 -334 -132 -88 -54 -91 -66 -16 -66 65 0 158 -12 280
-36 l82 -16 103 42 c100 42 243 90 263 89 6 0 -42 -21 -105 -48 -63 -26 -144
-63 -180 -81 -36 -18 -81 -39 -100 -46 l-35 -13 35 0 c19 0 76 4 126 8 79 8
107 16 210 64 155 71 230 100 337 131 129 38 238 58 293 54 48 -3 47 -4 -51
-26 -245 -56 -666 -214 -740 -277 -11 -9 -14 -13 -7 -10 14 7 338 123 506 182
155 53 483 123 841 178 55 8 115 17 133 20 23 4 32 2 32 -8 0 -10 -16 -17 -48
-21 -166 -22 -527 -135 -708 -220 -97 -46 -131 -58 -184 -62 l-65 -4 81 40
c45 23 146 64 225 91 79 27 128 47 109 43 -57 -10 -299 -94 -380 -130 -42 -20
-81 -32 -90 -28 -10 4 22 24 95 60 61 29 104 53 97 54 -20 0 -250 -89 -324
-126 -90 -45 -96 -61 -8 -23 75 32 103 31 120 -2 10 -17 18 -19 73 -13 106 11
347 -36 497 -95 30 -13 59 -26 63 -31 5 -4 -22 -13 -60 -19 -139 -24 -102 -31
170 -31 210 0 268 3 265 12 -3 7 -42 32 -87 55 -127 64 -377 142 -511 159 -92
11 -92 18 1 62 174 83 448 163 609 176 l65 6 -63 -19 c-95 -30 -95 -31 8 -26
l95 4 -90 -13 c-111 -16 -226 -43 -284 -68 -46 -20 -105 -58 -98 -64 2 -2 80
11 173 30 324 65 551 80 944 63 94 -4 135 -3 115 3 -63 19 -317 50 -475 57
-147 7 -158 8 -95 14 360 36 541 18 888 -87 65 -20 120 -34 123 -31 16 16
-260 111 -398 137 -42 8 -68 17 -68 25 0 15 118 -8 256 -50 71 -22 100 -25
220 -24 l139 1 -90 43 c-49 24 -121 54 -160 66 -38 13 -74 29 -78 36 -5 7 -12
11 -18 8 -5 -4 -9 2 -9 12 0 11 -5 24 -12 31 -9 9 -8 12 5 12 15 0 16 3 6 21
-6 12 -9 32 -6 45 2 14 1 27 -4 30 -5 3 -13 24 -20 46 l-11 42 -18 -54 c-10
-30 -16 -58 -14 -62 2 -3 0 -9 -5 -12 -5 -4 -9 -23 -8 -44 l2 -37 -58 0 c-31
0 -57 2 -57 5 1 3 7 13 15 24 17 23 9 70 -18 107 -16 23 -17 30 -7 50 8 14 9
24 3 26 -6 2 -19 10 -29 18 -15 11 -16 17 -6 23 7 5 10 16 6 26 -4 11 -1 22 7
27 11 7 7 15 -19 35 -25 20 -30 29 -20 35 10 7 10 12 1 27 -6 11 -15 36 -18
56 -4 20 -10 36 -14 36 -3 0 -15 -30 -25 -66 l-19 -67 -19 37 c-13 26 -25 36
-42 36 -30 0 -42 28 -19 45 15 11 15 13 -5 24 -12 6 -27 21 -33 32 -10 19 -9
20 13 13 20 -6 17 -1 -16 36 -25 28 -35 45 -27 48 9 3 5 12 -10 28 -12 13 -19
24 -16 24 4 0 0 16 -8 36 -8 20 -15 42 -15 50 0 17 230 -125 644 -398 115 -76
212 -135 215 -132 14 14 -179 181 -361 313 -109 78 -198 147 -198 152 0 6 6 7
13 3 46 -27 288 -198 457 -324 111 -83 206 -150 211 -150 21 0 5 21 -71 94
-45 42 -78 81 -74 87 3 5 2 15 -3 22 -5 7 -9 24 -8 39 0 15 -5 30 -13 33 -7 3
-11 9 -8 14 3 5 0 23 -7 41 l-14 32 -14 -34 c-7 -18 -13 -38 -11 -45 1 -6 -2
-14 -8 -18 -6 -4 -10 7 -10 28 0 30 -4 36 -27 42 l-28 7 23 11 23 10 -28 29
c-26 27 -26 28 -5 28 28 0 28 12 1 36 l-20 18 21 8 c21 8 21 9 -10 40 -24 24
-31 37 -27 57 6 29 -12 121 -24 121 -4 0 -10 -17 -14 -37 -4 -21 -14 -46 -22
-55 -8 -9 -13 -23 -10 -30 7 -21 -12 -48 -33 -48 -11 0 -20 -6 -20 -14 0 -19
-14 -28 -34 -20 -17 7 -22 34 -6 34 6 0 10 26 11 58 0 64 11 103 23 84 4 -7
16 -17 27 -22 18 -10 19 -7 19 45 0 34 -4 55 -11 55 -8 0 -10 -12 -6 -35 5
-31 4 -34 -11 -26 -10 5 -30 21 -44 36 -25 25 -29 26 -43 11 -18 -18 -35 -13
-35 10 0 8 -4 14 -8 14 -5 0 -9 8 -9 18 1 91 -13 103 -32 27 -12 -49 -20 -54
-44 -27 -13 14 -14 21 -5 30 9 9 5 19 -17 42 -16 16 -23 30 -17 30 17 0 15 20
-4 42 -10 10 -18 28 -19 40 -3 38 -17 88 -25 88 -4 0 -14 -24 -22 -52 -18 -64
-48 -80 -49 -26 0 18 -6 51 -13 73 l-12 40 -11 -45 c-7 -25 -15 -79 -19 -120
-5 -65 -9 -76 -25 -76 -16 0 -19 8 -19 51 0 91 -14 108 -21 25 l-5 -75 -2 82
c-1 45 -5 88 -8 97 -4 12 0 16 15 16 26 0 26 8 3 34 -10 12 -27 49 -38 84 -10
34 -22 62 -25 62 -7 0 -32 -76 -35 -103 -1 -10 -11 -28 -23 -41 -17 -18 -19
-25 -9 -29 10 -4 8 -9 -6 -21 -22 -18 -34 -13 -71 32 l-27 32 26 0 c36 0 32
13 -14 50 -45 36 -52 55 -16 46 37 -9 39 8 5 33 -21 16 -28 28 -24 41 3 11 -1
30 -10 44 -9 14 -14 30 -11 35 4 6 -2 35 -12 66 l-19 56 -17 -58 c-25 -90 -27
-91 -79 -38 l-47 46 27 42 c15 23 53 100 85 171 32 71 69 139 82 152 l24 24
78 -90 c91 -105 298 -274 730 -597 304 -228 409 -303 426 -303 20 0 -26 42
-234 212 -193 157 -338 297 -338 326 0 6 -4 12 -9 12 -5 0 -11 9 -14 20 -8 30
-37 25 -37 -6 0 -15 -4 -23 -10 -19 -6 4 -8 15 -5 25 3 10 -2 25 -11 35 -9 9
-17 24 -18 33 -2 23 -29 82 -38 82 -4 0 -11 -12 -14 -27 -4 -16 -14 -36 -22
-46 -15 -16 -17 -16 -39 5 -16 15 -22 29 -19 44 4 13 0 27 -9 34 -14 11 -13
14 1 24 14 10 13 15 -6 39 -12 15 -18 32 -15 38 4 6 -7 26 -25 44 -18 18 -29
38 -26 43 7 11 -24 72 -37 72 -10 0 -30 -50 -29 -72 0 -10 -5 -18 -12 -18 -15
0 -38 24 -31 32 3 3 -2 22 -11 44 -11 25 -19 34 -22 24 -3 -8 -9 -26 -15 -40
-5 -14 -9 -35 -8 -47 1 -11 -2 -24 -8 -27 -11 -7 -131 122 -131 142 0 7 -7 23
-15 36 -9 13 -15 28 -13 32 1 5 -15 36 -37 69 -21 32 -42 79 -47 102 -6 24
-13 43 -16 43 -4 0 -17 -23 -28 -52 -12 -29 -25 -53 -30 -54 -5 -2 -37 36 -72
84 -34 48 -72 98 -83 112 -19 23 -19 22 2 -20 12 -25 41 -79 64 -120 23 -41
46 -86 50 -100 6 -22 3 -21 -35 15 -47 46 -182 209 -199 243 -6 12 -15 22 -19
22 -4 0 -48 -30 -97 -66 -99 -73 -98 -73 -132 4 l-14 34 -29 -43 c-16 -24 -26
-47 -24 -51 3 -5 -4 -20 -15 -34 -12 -15 -21 -23 -21 -19 0 5 7 17 17 27 9 10
14 21 11 23 -3 3 -25 -17 -48 -45 -33 -40 -45 -48 -56 -39 -11 9 -19 -1 -41
-45 -17 -36 -30 -51 -35 -43 -5 9 -13 6 -29 -10 -16 -16 -24 -38 -27 -77 -2
-31 -7 -56 -11 -56 -3 0 -19 20 -34 45 -37 58 -44 62 -59 30 -7 -16 -14 -21
-19 -14 -4 7 23 42 67 87 41 41 72 78 69 80 -3 3 -35 -23 -72 -59 l-66 -64 24
44 c13 24 52 83 85 130 34 47 60 88 57 91 -7 7 -65 -60 -132 -153 -65 -91 -81
-119 -85 -150 -2 -12 -6 -29 -9 -37 -3 -8 -8 -27 -11 -43 l-6 -27 -48 24 c-26
13 -69 40 -97 60 -41 30 -46 36 -27 36 31 0 196 164 249 246 43 68 91 199 100
277 5 40 16 61 52 106 25 31 52 64 60 74 8 10 22 41 32 70 17 50 18 51 18 17
1 -49 -30 -111 -83 -168 -26 -27 -49 -63 -52 -80 -7 -35 -1 -38 36 -17 14 8
28 14 32 15 4 0 -4 -30 -18 -67 -14 -38 -28 -77 -31 -88 -10 -37 47 54 69 111
l22 57 -23 18 -23 19 27 32 c15 18 36 53 47 77 19 44 19 44 34 22 10 -14 13
-33 10 -54 l-6 -32 17 33 c16 31 16 34 -1 63 -13 22 -16 40 -11 66 5 30 2 40
-21 64 l-27 28 27 45 c15 25 29 46 31 46 2 0 23 -28 46 -62 110 -163 305 -422
365 -484 76 -80 63 -52 -43 88 -40 54 -82 113 -94 132 -17 30 -18 34 -3 40 39
15 63 5 102 -42 32 -37 46 -69 67 -142 33 -116 36 -122 104 -193 84 -89 99
-88 36 2 -45 65 -55 85 -49 103 4 13 7 29 5 36 -3 17 10 33 70 83 l48 40 69
-98 c38 -54 79 -117 90 -139 36 -70 141 -203 256 -321 121 -125 174 -165 250
-187 36 -11 56 -23 68 -43 9 -15 38 -50 63 -78 l46 -50 -29 45 c-48 76 -48 77
13 22 84 -77 203 -168 345 -264 169 -115 184 -124 179 -111 -6 17 -136 123
-304 249 -82 61 -181 140 -220 174 -73 65 -99 80 -175 100 -37 10 -65 32 -153
119 -133 130 -249 269 -300 359 -65 113 -176 262 -196 262 -10 0 -48 -23 -85
-50 -36 -28 -71 -48 -76 -45 -6 4 -23 34 -39 68 -17 37 -49 82 -79 111 l-51
49 -43 -11 c-55 -14 -60 -10 -178 164 -50 73 -95 136 -99 139 -5 3 -31 -23
-58 -57z m462 -783 c37 -44 111 -124 163 -177 l96 -97 -70 -64 c-38 -35 -83
-76 -101 -91 -32 -27 -32 -27 -45 -7 -18 29 -26 26 -33 -13 -8 -38 -41 -80
-56 -70 -6 3 -8 12 -5 20 3 7 1 16 -3 19 -5 2 -12 21 -15 40 -8 40 -20 39 -31
-2 -3 -16 -14 -36 -23 -46 -13 -15 -14 -20 -3 -26 11 -7 10 -13 -4 -34 -9 -15
-14 -31 -10 -37 3 -5 0 -10 -8 -10 -21 0 -38 -25 -31 -44 3 -9 15 -16 26 -16
17 0 18 -3 8 -15 -19 -22 -42 -18 -66 12 l-21 27 -7 -36 c-8 -41 -26 -61 -50
-52 -22 8 -20 24 2 24 31 0 32 11 5 34 -28 24 -24 46 8 46 24 0 24 12 0 27
-10 6 -29 26 -41 44 l-23 31 24 -7 c20 -7 22 -6 12 6 -7 8 -25 53 -41 101
l-29 86 -21 -73 c-12 -40 -33 -86 -47 -103 -30 -36 -32 -45 -5 -37 15 5 18 3
14 -9 -3 -9 -9 -16 -13 -16 -3 0 -22 -10 -41 -21 -32 -20 -33 -22 -16 -35 15
-10 16 -16 7 -27 -6 -8 -8 -22 -5 -31 4 -11 -2 -26 -15 -40 l-22 -24 21 -15
21 -15 -28 -22 -28 -22 -5 50 c-6 57 -4 54 -48 76 -22 11 -44 15 -63 11 -28
-6 -29 -5 -29 29 0 31 -52 156 -64 156 -3 0 -14 -16 -26 -35 -24 -38 -45 -43
-95 -21 l-30 13 34 18 c32 16 461 302 526 350 52 39 75 48 75 30 0 -8 -5 -15
-11 -15 -13 0 -379 -253 -374 -258 3 -3 43 14 90 36 47 23 85 37 85 33 0 -4
-27 -28 -61 -52 -101 -73 -98 -70 -60 -57 66 22 156 94 249 198 51 58 103 125
115 150 21 44 154 193 167 188 3 -2 37 -39 75 -83z m-870 -82 c-56 -51 -153
-119 -160 -111 -5 4 195 158 205 157 3 0 -17 -21 -45 -46z m-272 -76 c75 -65
127 -101 230 -157 68 -37 76 -44 65 -59 -67 -88 -91 -111 -103 -101 -10 9 -15
3 -20 -22 -11 -49 -15 -52 -40 -28 l-22 21 -6 -23 c-6 -22 -7 -22 -43 12 -42
41 -66 83 -64 113 3 38 0 57 -9 57 -5 0 -11 -25 -13 -55 -4 -46 -10 -62 -39
-92 -19 -19 -49 -42 -66 -49 -32 -14 -33 -17 -33 -69 0 -42 -4 -55 -15 -55 -8
0 -12 6 -9 13 6 17 -12 67 -26 67 -5 0 -13 -18 -16 -40 -5 -30 -11 -40 -25
-40 -22 0 -34 17 -17 23 10 4 11 7 1 18 -7 7 -13 24 -13 38 0 15 -4 33 -10 41
-7 11 -11 9 -19 -13 l-11 -27 -39 26 -40 26 77 58 c89 68 116 95 161 168 28
45 32 59 27 92 -5 34 -2 44 25 75 17 19 36 35 41 35 5 0 38 -24 71 -53z m-219
-189 c-23 -42 -60 -81 -102 -109 -44 -30 -43 -28 28 45 74 76 87 87 74 64z
m252 -185 c-7 -7 -26 7 -26 19 0 6 6 6 15 -2 9 -7 13 -15 11 -17z m-61 7 c-3
-5 -12 -10 -18 -10 -7 0 -6 4 3 10 19 12 23 12 15 0z m15 -40 c0 -5 -24 -10
-52 -9 -39 0 -48 3 -33 9 28 12 85 12 85 0z m80 0 c11 -7 5 -10 -22 -10 -21 0
-38 5 -38 10 0 13 40 13 60 0z m90 -15 c-7 -9 -15 -13 -17 -11 -7 7 7 26 19
26 6 0 6 -6 -2 -15z m152 -56 c68 -70 69 -72 37 -65 -18 3 -33 7 -34 9 -1 1
-21 27 -43 58 -41 54 -48 69 -36 69 4 0 38 -32 76 -71z m-432 6 c0 -19 -4 -35
-10 -35 -11 0 -14 53 -3 63 11 12 13 8 13 -28z m110 26 c0 -5 -3 -23 -6 -40
-6 -28 -10 -31 -45 -31 -39 0 -39 0 -39 40 l0 40 45 0 c25 0 45 -4 45 -9z m90
-23 c-1 -37 -35 -87 -50 -72 -6 6 -13 31 -16 57 l-7 47 37 0 c34 0 36 -2 36
-32z m1137 -56 c94 -75 159 -113 179 -106 15 6 14 2 -7 -22 -22 -23 -25 -32
-16 -46 9 -14 7 -22 -12 -39 -22 -21 -22 -23 -6 -29 16 -6 16 -7 1 -23 -10 -9
-29 -17 -44 -17 l-27 -1 24 -19 c12 -11 27 -17 32 -14 14 8 11 -10 -6 -32 -8
-11 -15 -14 -15 -6 0 20 -18 13 -26 -10 -7 -23 -7 -22 -16 5 -11 31 -23 34
-37 10 -5 -10 -13 -15 -17 -10 -12 12 -14 57 -2 57 7 0 5 7 -4 18 -8 9 -15 26
-15 37 -1 11 -7 34 -13 50 l-12 30 -13 -35 c-7 -19 -10 -39 -8 -43 3 -4 2 -15
-1 -24 -5 -12 -9 -13 -21 -3 -20 17 -19 31 3 23 13 -5 12 0 -7 20 -12 14 -20
30 -17 36 4 5 2 12 -3 15 -5 3 -12 22 -16 43 l-7 37 -27 -50 c-21 -38 -24 -50
-13 -54 11 -5 11 -8 -2 -19 -14 -12 -19 -11 -36 4 -11 10 -18 29 -17 44 0 14
-2 36 -6 47 -7 20 -2 24 48 39 34 11 55 23 55 32 0 9 -6 13 -12 10 -7 -2 -39
-12 -70 -21 -31 -9 -60 -21 -63 -26 -4 -6 -23 -19 -44 -30 -29 -14 -41 -16
-50 -7 -19 19 -13 24 65 53 48 17 71 30 62 35 -8 5 -3 11 17 19 17 7 57 23 90
36 33 12 65 23 72 24 6 0 33 -17 60 -38z m-918 -6 c-11 -9 -210 -15 -204 -6 3
6 50 10 107 10 56 0 99 -2 97 -4z m12 -36 c5 0 9 -25 9 -56 0 -47 -3 -55 -17
-52 -12 2 -19 14 -21 36 -3 25 -7 32 -19 28 -8 -3 -17 -6 -19 -6 -2 0 -4 -9
-4 -20 0 -11 -5 -20 -11 -20 -7 0 -10 14 -7 35 3 23 0 35 -8 35 -9 0 -11 -11
-7 -35 l6 -35 -52 0 -51 0 0 45 0 44 83 3 c45 2 88 2 95 1 8 -2 18 -3 23 -3z
m229 0 c11 -7 1 -10 -35 -11 -44 -1 -46 -2 -20 -9 17 -4 23 -8 14 -9 -10 -1
-19 -13 -22 -31 -4 -16 -11 -30 -17 -30 -11 0 -14 83 -3 93 10 10 66 8 83 -3z
m-526 -25 l29 -24 -49 2 -49 2 -3 -50 c-2 -27 -8 -54 -14 -60 -7 -7 -9 8 -6
48 4 49 2 60 -14 68 -10 5 -23 7 -29 4 -5 -4 -28 -4 -50 0 -33 6 -38 9 -28 21
8 10 35 14 98 14 76 -1 90 -4 115 -25z m371 15 c4 -6 2 -9 -3 -8 -11 3 -12 0
-12 -41 0 -25 5 -30 28 -34 19 -3 14 -4 -15 -6 l-43 -1 0 50 c0 43 3 50 19 50
11 0 23 -5 26 -10z m-765 -10 c0 -5 -9 -10 -20 -10 -11 0 -20 5 -20 10 0 6 9
10 20 10 11 0 20 -4 20 -10z m940 -35 c0 -23 -5 -35 -14 -35 -8 0 -15 14 -18
35 -3 29 -1 35 14 35 14 0 18 -8 18 -35z m-709 -46 c-2 -35 -6 -47 -12 -38
-10 16 2 89 14 89 1 0 0 -23 -2 -51z m129 -10 c0 -21 -4 -39 -10 -39 -5 0 -10
21 -10 46 0 27 4 43 10 39 6 -3 10 -24 10 -46z m-80 31 c0 -5 -7 -10 -16 -10
-8 0 -12 5 -9 10 3 6 10 10 16 10 5 0 9 -4 9 -10z m160 -30 c0 -19 -7 -30 -24
-38 -30 -14 -36 -8 -36 38 0 35 1 36 30 32 25 -4 30 -9 30 -32z m-380 20 c0
-6 -28 -10 -65 -10 -37 0 -65 4 -65 10 0 6 28 10 65 10 37 0 65 -4 65 -10z
m-182 -7 c-10 -2 -28 -2 -40 0 -13 2 -5 4 17 4 22 1 32 -1 23 -4z m401 -40 c0
-25 -1 -26 -9 -8 -12 27 -12 35 0 35 6 0 10 -12 9 -27z m296 17 c-45 -12 -97
-12 -90 0 3 6 32 9 63 9 47 -1 52 -3 27 -9z m-485 -35 c0 -19 -4 -35 -9 -35
-5 0 -16 -3 -24 -6 -11 -4 -13 1 -10 20 6 29 -20 47 -40 27 -9 -9 -8 -17 1
-32 8 -12 12 -22 10 -23 -2 -1 -21 -10 -42 -19 -32 -15 -41 -16 -47 -5 -5 7
-7 19 -4 26 3 8 5 20 5 28 0 8 10 14 25 14 14 0 25 5 25 10 0 6 -13 10 -30 10
-16 0 -30 5 -30 10 0 6 35 10 85 10 l85 0 0 -35z m698 -2 c3 -19 -3 -22 -55
-28 -91 -9 -133 -23 -142 -48 -13 -34 1 -49 78 -86 39 -19 69 -36 67 -38 -2
-2 -48 17 -102 43 -55 25 -132 59 -173 74 l-75 28 30 14 c16 9 52 21 81 27 55
13 261 40 278 37 6 -2 11 -12 13 -23z m232 12 c15 -18 3 -40 -14 -26 -7 6 -30
9 -51 7 -35 -2 -40 -5 -37 -25 3 -20 0 -22 -20 -16 -13 4 -35 14 -49 21 -15 7
-29 11 -31 8 -3 -3 -8 7 -10 21 l-5 25 102 0 c78 0 105 -4 115 -15z m-1151
-87 c-1 -68 -3 -75 -8 -41 -4 24 -10 45 -14 49 -8 9 -20 -63 -13 -81 3 -8 1
-15 -4 -15 -6 0 -10 31 -10 69 0 38 -3 76 -6 85 -5 13 1 16 25 16 l31 0 -1
-82z m-225 17 c3 -8 3 -22 -1 -30 -4 -12 -9 -10 -19 11 -17 33 -17 34 0 34 8
0 16 -7 20 -15z m1589 -94 l28 -41 -97 45 c-53 25 -97 45 -99 45 -1 0 0 13 3
30 l4 29 67 -34 c45 -23 75 -47 94 -74z m195 97 c-6 -17 -36 -34 -44 -25 -4 4
1 14 12 22 23 18 37 19 32 3z m-448 -49 c63 -28 153 -66 198 -85 46 -19 93
-39 104 -45 34 -18 14 -20 -35 -3 -26 9 -52 14 -58 12 -12 -4 303 -148 455
-208 74 -29 157 -70 111 -55 -233 79 -453 147 -499 156 -32 6 -110 28 -173 51
-63 22 -117 38 -119 35 -2 -2 39 -21 93 -41 143 -53 145 -55 102 -55 -20 -1
-50 -6 -67 -12 -29 -10 -35 -8 -79 29 -50 42 -212 135 -320 184 -71 32 -75 51
-14 68 118 32 170 27 301 -31z m70 25 c0 -12 -4 -13 -21 -3 -17 9 -19 13 -8
19 16 11 29 4 29 -16z m-458 -102 c114 -53 221 -125 236 -158 15 -32 15 -32
-29 -41 -31 -6 -33 -5 -20 10 34 42 -9 82 -183 173 -119 63 -121 70 -4 16z
m818 -8 c22 -9 40 -22 40 -30 0 -11 -9 -10 -47 5 -26 10 -49 23 -51 30 -5 15
10 14 58 -5z m40 -66 c0 -5 -12 -8 -27 -8 -34 0 -24 -10 47 -49 74 -41 56 -39
-40 5 -72 33 -80 40 -80 64 l0 28 50 -16 c27 -10 50 -20 50 -24z m-1970 12 c0
-5 -4 -10 -9 -10 -6 0 -13 5 -16 10 -3 6 1 10 9 10 9 0 16 -4 16 -10z m20 -25
c-7 -8 -16 -12 -21 -9 -13 8 -1 24 18 24 13 0 13 -3 3 -15z m1441 -63 c38 -32
49 -52 30 -52 -5 0 -24 15 -42 33 -19 18 -52 47 -74 65 l-40 33 44 -23 c23
-12 61 -38 82 -56z m1326 16 c-3 -8 -6 -5 -6 6 -1 11 2 17 5 13 3 -3 4 -12 1
-19z m-552 -48 c4 -6 -7 -10 -24 -10 -17 0 -31 5 -31 10 0 6 11 10 24 10 14 0
28 -4 31 -10z m-359 -16 c71 -24 75 -34 10 -27 -31 3 -56 3 -56 0 0 -4 26 -37
59 -75 l59 -68 -157 79 c-86 44 -158 81 -160 83 -2 2 12 7 30 13 54 15 161 12
215 -5z m490 10 c68 -9 124 -57 123 -106 l-1 -33 -14 33 c-17 39 -33 42 -35 5
l-2 -28 -4 28 c-2 15 -8 27 -12 27 -5 0 -11 9 -14 20 -4 17 -14 20 -69 20 -59
0 -88 11 -88 32 0 10 46 10 116 2z m352 -159 c2 -58 -1 -85 -8 -80 -5 3 -10
40 -10 81 0 95 -19 91 -22 -4 0 -37 -3 -51 -5 -32 -4 38 -43 130 -55 130 -7 0
-10 -11 -24 -78 -4 -21 -5 -21 -29 -6 -34 22 -32 38 11 90 l37 44 51 -28 51
-29 3 -88z m-1338 112 c-65 -59 -173 -138 -184 -134 -8 3 -19 0 -25 -6 -14
-14 -31 7 -31 40 0 39 -20 36 -62 -8 -23 -24 -36 -45 -30 -47 7 -2 7 -12 0
-33 -8 -23 -13 -27 -23 -19 -10 8 -17 6 -27 -7 -20 -27 -61 -48 -66 -34 -6 19
-22 12 -33 -15 -5 -15 -12 -24 -16 -20 -3 3 -14 -1 -24 -10 -24 -22 -29 -6
-14 40 29 84 127 153 315 221 86 30 138 42 195 44 33 1 37 -1 25 -12z m272
-26 c180 -72 428 -200 428 -222 0 -6 -9 -24 -20 -39 -13 -19 -16 -30 -9 -32 8
-3 9 -10 2 -23 -5 -11 -17 -35 -26 -52 -14 -29 -14 -33 -1 -33 8 0 12 -5 8
-11 -4 -7 -29 -9 -73 -5 -73 7 -77 6 -110 -41 -12 -18 -26 -33 -30 -33 -9 0
-20 42 -27 100 -3 19 -12 55 -22 80 l-16 44 -9 -34 c-5 -19 -10 -53 -11 -76
-2 -22 -8 -49 -14 -60 -10 -17 -11 -16 -12 11 0 17 -3 41 -7 53 -9 35 -23 7
-23 -46 0 -29 -7 -53 -21 -70 -19 -24 -19 -27 -3 -32 16 -6 16 -8 -3 -27 -12
-12 -18 -25 -15 -29 4 -3 1 -5 -7 -2 -8 2 -18 11 -21 19 -29 59 -50 94 -57 91
-4 -1 -14 -21 -22 -45 -7 -23 -17 -50 -22 -59 -5 -10 -9 -27 -9 -37 0 -36 -17
-31 -55 14 -26 33 -44 45 -63 45 -42 0 -72 11 -72 26 0 8 -10 14 -25 14 -14 0
-25 4 -25 9 0 5 10 7 23 5 14 -3 12 0 -7 7 -25 10 -31 9 -43 -7 -7 -10 -13
-24 -13 -32 0 -11 -26 -13 -140 -11 -164 3 -143 15 -269 -149 l-84 -109 -76
19 c-42 10 -111 21 -153 24 -91 8 -91 6 4 104 101 105 332 248 476 295 29 9
97 25 150 35 107 20 78 26 -45 9 -144 -19 -263 -68 -428 -174 -52 -34 -58 -36
-44 -14 27 41 129 117 213 158 110 53 175 71 281 78 152 9 274 -31 446 -147
50 -34 94 -58 97 -55 17 17 -192 170 -266 196 -18 6 -32 13 -32 15 0 3 34 44
76 92 42 48 93 111 112 140 19 28 36 52 38 52 2 0 36 -13 76 -29z m339 -44
c20 -23 60 -61 90 -84 60 -46 333 -208 323 -191 -4 5 -77 56 -163 113 -149 98
-238 172 -230 193 10 25 318 -67 458 -137 87 -44 98 -62 66 -108 -8 -12 -12
-29 -9 -38 4 -9 -1 -24 -11 -35 -10 -11 -14 -20 -8 -20 15 0 9 -40 -8 -52 -10
-7 -11 -11 -2 -14 9 -4 6 -15 -10 -40 -12 -18 -25 -34 -28 -34 -3 0 -13 16
-22 35 -30 63 -98 124 -236 212 -141 89 -201 136 -259 203 -33 39 -33 40 -10
40 16 0 36 -15 59 -43z m919 -118 c0 -61 -7 -89 -21 -89 -5 0 -9 9 -9 19 0 11
-4 23 -10 26 -11 7 -13 57 -4 104 6 30 8 31 25 15 14 -13 19 -31 19 -75z
m-140 71 c0 -5 -4 -10 -10 -10 -5 0 -10 5 -10 10 0 6 5 10 10 10 6 0 10 -4 10
-10z m-114 -81 c52 -39 94 -73 94 -75 0 -14 -187 113 -211 142 -27 33 18 7
117 -67z m424 6 c0 -21 -5 -25 -31 -25 -17 0 -28 -4 -24 -10 3 -5 18 -10 32
-10 22 0 24 -3 18 -22 -3 -13 -9 -39 -11 -58 -6 -45 -14 -52 -14 -12 0 17 -11
52 -25 78 -37 69 -34 84 15 84 36 0 40 -2 40 -25z m-1880 0 c0 -8 -4 -15 -9
-15 -13 0 -22 16 -14 24 11 11 23 6 23 -9z m-70 -16 c0 -6 -4 -7 -10 -4 -5 3
-10 11 -10 16 0 6 5 7 10 4 6 -3 10 -11 10 -16z m1047 -85 c139 -82 172 -106
199 -147 l26 -40 -23 6 c-13 4 -32 7 -41 7 -14 0 -16 6 -11 30 6 34 -6 40 -24
11 -8 -12 -28 -20 -67 -24 -69 -7 -101 0 -86 19 8 9 7 19 -5 37 -11 18 -13 27
-5 32 8 5 7 12 -3 23 -16 18 -49 92 -42 92 3 0 39 -21 82 -46z m953 -64 c0 -5
-2 -10 -4 -10 -3 0 -8 5 -11 10 -3 6 -1 10 4 10 6 0 11 -4 11 -10z m-866 -141
c2 -2 7 -18 10 -36 l7 -31 -53 -7 -53 -7 -35 -71 c-19 -39 -39 -71 -44 -71 -5
-1 -47 53 -93 118 l-85 119 171 -5 c94 -3 173 -7 175 -9z m130 -15 c10 -4 16
-18 16 -40 0 -27 -4 -34 -20 -34 -17 0 -20 7 -20 40 0 43 0 43 24 34z m-2019
-14 c3 -5 1 -10 -4 -10 -6 0 -11 5 -11 10 0 6 2 10 4 10 3 0 8 -4 11 -10z
m2251 1 c-3 -5 -15 -7 -26 -4 -28 7 -25 13 6 13 14 0 23 -4 20 -9z m-2131 -41
c3 -5 1 -10 -4 -10 -6 0 -11 5 -11 10 0 6 2 10 4 10 3 0 8 -4 11 -10z m805
-11 c0 -5 -4 -9 -10 -9 -5 0 -10 7 -10 16 0 8 5 12 10 9 6 -3 10 -10 10 -16z
m530 -19 c-6 -11 -13 -20 -16 -20 -2 0 0 9 6 20 6 11 13 20 16 20 2 0 0 -9 -6
-20z m-572 -14 c84 -1 146 -6 150 -12 4 -6 39 -48 78 -95 38 -46 94 -115 123
-152 l53 -68 -153 2 c-85 0 -198 4 -251 6 l-97 6 -89 136 c-89 135 -112 174
-112 186 0 4 35 3 78 0 42 -4 141 -7 220 -9z m1311 -28 c7 -19 14 -21 67 -19
l59 2 99 -128 98 -128 -98 -6 c-185 -12 -429 -10 -447 4 -18 14 -157 245 -157
262 0 30 26 35 197 35 169 0 174 -1 182 -22z m-769 -8 c-6 -11 -13 -20 -16
-20 -2 0 0 9 6 20 6 11 13 20 16 20 2 0 0 -9 -6 -20z m-900 -4 c0 -2 -8 -10
-17 -17 -16 -13 -17 -12 -4 4 13 16 21 21 21 13z m864 -53 c-9 -16 -27 -43
-38 -60 -12 -18 -24 -33 -28 -33 -4 0 12 27 34 60 42 60 67 85 32 33z m-954
-62 c-33 -44 -66 -83 -73 -87 -6 -4 4 12 23 37 20 24 51 63 69 87 18 23 35 42
37 42 3 0 -22 -36 -56 -79z m1150 4 c0 -16 -6 -25 -15 -25 -9 0 -15 9 -15 25
0 16 6 25 15 25 9 0 15 -9 15 -25z m-53 -5 c-1 -12 -8 -20 -19 -20 -11 0 -18
7 -18 20 0 13 7 20 19 20 14 0 19 -6 18 -20z m273 -65 c0 -27 -4 -35 -18 -35
-29 0 -32 9 -14 41 22 38 32 37 32 -6z m-1222 -26 c1 -51 -22 -48 -26 4 -2 27
1 37 11 37 10 0 15 -12 15 -41z m838 -50 c-3 -17 -6 -58 -6 -90 0 -46 -3 -59
-15 -59 -12 0 -15 17 -15 90 0 85 1 90 21 90 19 0 21 -4 15 -31z m287 -56 c-3
-49 -7 -90 -9 -91 -1 -2 -4 37 -6 87 -2 63 0 91 8 91 8 0 10 -26 7 -87z
m-1333 58 c-11 -21 -29 -36 -35 -29 -3 2 2 14 11 26 19 28 39 30 24 3z m1200
4 c0 -11 -11 -15 -40 -15 -29 0 -40 4 -40 15 0 11 11 15 40 15 29 0 40 -4 40
-15z m-50 -54 c0 -10 -7 -21 -15 -25 -11 -4 -15 1 -15 19 0 16 6 25 15 25 8 0
15 -9 15 -19z m50 -1 c0 -13 -7 -20 -20 -20 -13 0 -20 7 -20 20 0 13 7 20 20
20 13 0 20 -7 20 -20z m-780 -5 c29 -15 30 -17 30 -95 l0 -80 -35 0 -35 0 0
95 c0 52 2 95 5 95 4 0 19 -7 35 -15z m1416 5 l234 0 0 -91 0 -90 -32 3 -33 3
-3 78 -3 77 -39 0 -40 0 0 -75 0 -75 -45 0 -45 0 0 65 c0 51 3 65 15 65 11 0
15 -12 15 -45 0 -25 5 -45 10 -45 6 0 10 26 10 58 l0 57 -60 -3 -60 -4 0 -74
0 -74 -95 0 -95 0 0 91 c0 79 2 90 16 85 9 -3 121 -6 250 -6z m-1191 -10 c-88
-3 -154 -7 -147 -8 8 -1 12 -26 12 -82 0 -71 -2 -80 -19 -80 -16 0 -19 9 -20
90 l-2 90 168 -2 168 -2 -160 -6z m793 3 c-10 -2 -26 -2 -35 0 -10 3 -2 5 17
5 19 0 27 -2 18 -5z m-1368 -28 c0 -14 -4 -25 -10 -25 -5 0 -10 11 -10 25 0
14 5 25 10 25 6 0 10 -11 10 -25z m40 0 c0 -14 -6 -25 -12 -25 -7 0 -13 11
-13 25 0 14 6 25 13 25 6 0 12 -11 12 -25z m210 5 c0 -16 -7 -20 -35 -20 -28
0 -35 4 -35 20 0 16 7 20 35 20 28 0 35 -4 35 -20z m650 -30 c0 -22 -4 -40
-10 -40 -5 0 -10 18 -10 40 0 22 5 40 10 40 6 0 10 -18 10 -40z m480 -35 l0
-75 -30 0 -30 0 0 75 0 75 30 0 30 0 0 -75z m-1452 -2 c-2 -42 -7 -58 -22 -69
-18 -12 -18 -14 -3 -14 22 0 22 -16 0 -24 -10 -4 -22 -1 -28 7 -6 8 -22 17
-35 20 -20 3 -18 5 9 6 29 1 33 4 28 23 -4 12 -1 28 5 35 8 10 8 17 0 25 -7 7
-12 22 -12 33 0 18 5 21 30 17 30 -4 30 -5 28 -59z m902 -13 l0 -80 -130 0
-130 0 0 80 0 80 130 0 130 0 0 -80z m300 55 c0 -11 -11 -15 -40 -15 -29 0
-40 4 -40 15 0 11 11 15 40 15 29 0 40 -4 40 -15z m-882 -33 c-2 -21 -8 -26
-25 -25 -13 2 -23 -2 -23 -7 0 -6 11 -10 25 -10 18 0 25 -5 25 -20 0 -17 -7
-20 -40 -20 l-40 0 0 48 c0 27 3 51 6 54 3 3 21 6 40 6 32 0 35 -2 32 -26z
m-209 -9 c0 -16 -3 -22 -6 -15 -2 6 -9 10 -14 6 -5 -3 -9 4 -9 15 0 12 7 21
15 21 10 0 15 -9 14 -27z m481 -43 c0 -27 -4 -50 -10 -50 -5 0 -10 23 -10 50
0 28 5 50 10 50 6 0 10 -22 10 -50z m-520 -5 c0 -14 -4 -25 -10 -25 -5 0 -9
11 -8 25 1 14 6 25 10 25 4 0 8 -11 8 -25z m40 -5 c0 -11 -6 -20 -14 -20 -9 0
-14 9 -13 20 1 11 7 20 14 20 7 0 13 -9 13 -20z m-126 -88 c-12 -9 -24 -25
-27 -34 -10 -28 -27 -21 -27 10 0 36 6 42 44 42 31 0 31 -1 10 -18z m1494 -9
c-16 -2 -40 -2 -55 0 -16 2 -3 4 27 4 30 0 43 -2 28 -4z"/>
<path d="M2920 3491 c-8 -21 -9 -39 -2 -65 6 -20 7 -38 2 -41 -14 -9 -140
-194 -150 -221 -8 -19 -6 -26 6 -31 10 -4 33 12 67 44 29 28 58 48 65 46 11
-4 11 -2 0 16 -7 12 -15 21 -18 21 -3 0 -20 -23 -39 -51 -19 -27 -36 -48 -38
-45 -4 4 72 123 106 166 l20 25 71 -70 c38 -38 70 -66 70 -61 0 5 -31 54 -68
110 -38 56 -72 109 -75 119 -11 30 9 18 37 -21 27 -39 96 -110 81 -82 -5 8
-35 50 -66 93 l-57 77 -12 -29z"/>
<path d="M1705 3406 c-10 -15 -14 -33 -9 -49 6 -26 -3 -50 -40 -112 l-18 -30
26 30 c26 31 38 55 53 114 l8 34 75 -66 c41 -36 76 -64 78 -62 6 6 -139 165
-149 165 -5 0 -16 -11 -24 -24z"/>
<path d="M1950 2805 c0 -9 9 -15 25 -15 16 0 25 6 25 15 0 9 -9 15 -25 15 -16
0 -25 -6 -25 -15z"/>
<path d="M2212 2590 c-40 -9 -44 -13 -36 -33 12 -33 66 -46 220 -52 104 -3
140 -2 119 5 -16 5 -51 21 -76 34 -45 25 -149 57 -179 55 -8 -1 -30 -5 -48 -9z
m89 -40 c30 -5 66 -14 80 -19 30 -13 -134 -3 -169 10 -29 11 -18 33 12 24 11
-4 46 -11 77 -15z"/>
<path d="M1981 1580 c22 -47 99 -149 117 -154 29 -8 322 -3 322 6 0 5 -13 11
-30 15 -21 4 -30 11 -30 24 0 11 5 19 10 19 22 0 8 21 -30 45 -51 32 -111 33
-162 2 l-37 -23 21 -32 20 -32 -37 0 c-31 0 -45 7 -79 43 -23 23 -54 58 -69
77 -20 25 -24 28 -16 10z m334 -60 c4 -6 -13 -10 -44 -10 -50 0 -51 -1 -51
-29 0 -17 -4 -32 -8 -35 -9 -6 -15 60 -7 74 8 13 102 13 110 0z m-45 -45 c0
-14 -4 -25 -10 -25 -5 0 -10 11 -10 25 0 14 5 25 10 25 6 0 10 -11 10 -25z
m60 -5 c0 -16 -2 -30 -4 -30 -2 0 -6 14 -8 30 -3 17 -1 30 4 30 4 0 8 -13 8
-30z"/>
<path d="M3568 1544 c6 -11 22 -35 37 -54 l26 -35 -193 -5 c-163 -4 -193 -7
-193 -20 0 -13 34 -15 234 -18 l234 -2 -29 27 c-16 16 -45 47 -65 69 -43 49
-66 66 -51 38z"/>
<path d="M3300 1250 c0 -39 1 -40 35 -40 34 0 35 1 35 40 0 39 -1 40 -35 40
-34 0 -35 -1 -35 -40z m50 5 c0 -8 -4 -15 -10 -15 -5 0 -7 7 -4 15 4 8 8 15
10 15 2 0 4 -7 4 -15z"/>
<path d="M2380 1230 l0 -40 50 0 50 0 0 40 0 40 -50 0 -50 0 0 -40z m80 -6 c0
-8 -4 -14 -10 -14 -5 0 -10 9 -10 21 0 11 5 17 10 14 6 -3 10 -13 10 -21z
m-30 1 c0 -8 -7 -15 -15 -15 -8 0 -15 7 -15 15 0 8 7 15 15 15 8 0 15 -7 15
-15z"/>
<path d="M3288 4235 c-15 -9 -32 -24 -38 -35 -9 -17 -6 -17 26 5 41 28 106 36
84 10 -10 -12 11 -14 159 -17 94 -2 171 0 171 4 0 4 -14 15 -31 23 -23 12 -57
16 -142 14 -62 -1 -132 2 -157 5 -31 4 -53 2 -72 -9z"/>
<path d="M1590 4223 c-92 -35 -139 -160 -90 -241 19 -31 74 -72 95 -72 6 0 -2
8 -17 17 -37 23 -68 83 -68 132 0 85 56 141 141 141 62 0 108 -32 133 -92 17
-42 18 -52 7 -90 -7 -23 -28 -57 -46 -75 -37 -37 -36 -41 7 -15 65 38 87 142
45 217 -36 64 -140 103 -207 78z"/>
<path d="M3809 4055 c-14 -8 -32 -27 -38 -43 -11 -25 -19 -30 -62 -35 -27 -3
-57 -11 -67 -16 -12 -7 59 -10 233 -11 l250 0 -30 20 c-18 12 -47 20 -71 20
-31 0 -46 6 -65 26 -49 52 -101 66 -150 39z m122 -36 c16 -11 29 -25 29 -30 0
-5 -38 -9 -85 -9 -89 0 -99 6 -65 40 26 26 83 26 121 -1z"/>
<path d="M1143 3955 c-17 -7 -36 -22 -42 -33 -8 -15 -24 -20 -75 -24 -35 -3
-75 -13 -87 -22 -22 -15 -4 -16 261 -15 l285 1 -55 18 c-30 11 -74 19 -97 19
-32 1 -45 6 -53 21 -12 23 -60 50 -87 50 -10 -1 -32 -7 -50 -15z m92 -27 c52
-24 19 -41 -62 -31 l-56 6 22 19 c27 21 59 23 96 6z"/>
<path d="M1937 3933 c-53 -8 -18 -18 52 -15 40 2 69 8 65 13 -5 9 -63 10 -117
2z"/>
<path d="M2586 3844 c-14 -31 -26 -61 -26 -68 1 -10 22 13 39 43 7 11 24 -1
71 -50 l62 -64 -43 80 c-52 99 -62 115 -71 115 -3 0 -18 -25 -32 -56z"/>
<path d="M3170 3828 c0 -9 5 -20 10 -23 13 -8 13 5 0 25 -8 13 -10 13 -10 -2z"/>
<path d="M1393 3791 c-17 -11 -42 -34 -54 -50 -13 -18 -32 -31 -44 -31 -25 0
-86 -38 -93 -57 -3 -10 30 -13 141 -13 79 0 213 -2 298 -5 l154 -5 -45 22
c-41 20 -58 21 -217 20 -163 -2 -173 -1 -173 16 0 30 38 70 75 81 47 13 98 -3
129 -39 13 -17 29 -30 34 -30 19 0 0 38 -34 71 -44 42 -121 51 -171 20z"/>
<path d="M3170 3772 c0 -25 50 -100 95 -142 21 -19 34 -28 30 -20 -4 8 44 -36
106 -97 63 -62 118 -113 122 -113 5 0 -28 40 -73 89 -45 49 -104 119 -132 156
-34 45 -53 63 -58 55 -6 -9 -20 4 -45 39 -20 28 -39 51 -41 51 -2 0 -4 -8 -4
-18z"/>
<path d="M3551 3728 c-50 -34 -53 -53 -6 -34 47 20 94 20 119 1 38 -28 52 -17
20 15 -41 42 -89 48 -133 18z"/>
<path d="M2460 3600 c-44 -53 -50 -81 -8 -35 25 27 62 85 54 85 -2 0 -23 -23
-46 -50z"/>
<path d="M3625 3631 c-16 -7 -14 -9 14 -14 19 -4 70 -7 115 -7 73 1 79 2 62
15 -21 16 -154 20 -191 6z"/>
<path d="M978 3590 c-14 -10 -28 -17 -30 -14 -3 2 -18 -2 -34 -11 -16 -8 -36
-15 -44 -15 -8 0 -22 -5 -30 -10 -10 -6 61 -9 210 -9 199 1 222 2 195 14 -16
8 -42 14 -57 15 -16 0 -28 4 -28 9 0 5 -8 7 -18 4 -11 -2 -34 5 -53 16 -43 26
-79 27 -111 1z"/>
<path d="M3934 3535 c-12 -9 -43 -14 -85 -15 -52 0 -72 -5 -90 -20 l-24 -20
33 11 c23 8 49 8 83 2 43 -9 56 -7 87 9 60 31 164 8 180 -40 5 -17 -189 -17
-206 0 -9 9 -12 9 -12 0 0 -7 -14 -12 -34 -12 -19 0 -44 -9 -57 -20 -24 -19
-24 -19 221 -19 245 0 245 0 221 19 -14 12 -38 20 -61 20 -33 0 -41 5 -61 36
-12 20 -37 43 -55 50 -44 18 -115 18 -140 -1z"/>
<path d="M1146 3320 c-4 -11 -22 -15 -66 -15 -34 0 -64 -5 -71 -12 -10 -10 23
-13 167 -13 119 0 174 4 164 10 -8 5 -29 10 -47 10 -17 0 -35 5 -39 11 -6 10
-26 8 -76 -7 -10 -3 -18 2 -21 13 -3 15 -5 15 -11 3z"/>
<path d="M3711 3238 c15 -35 82 -68 135 -68 37 1 36 1 -29 24 -37 12 -79 33
-93 47 l-26 24 13 -27z"/>
<path d="M3273 3153 c-12 -38 -24 -88 -28 -113 -5 -43 -5 -44 9 -20 7 14 20
44 27 68 6 23 15 42 19 42 4 0 23 -24 44 -54 69 -100 75 -90 18 28 -32 63 -59
115 -63 116 -3 0 -15 -30 -26 -67z"/>
<path d="M3894 3085 c10 -16 30 -40 45 -52 14 -13 20 -23 14 -23 -25 0 -13
-40 24 -81 21 -23 64 -59 98 -82 67 -45 65 -42 -42 75 -29 31 -53 63 -53 72 0
9 -23 39 -52 68 -37 38 -46 45 -34 23z"/>
<path d="M3480 3044 c0 -14 72 -94 103 -116 23 -16 15 -3 -32 50 -61 70 -71
79 -71 66z"/>
<path d="M3360 2923 c0 -15 128 -178 176 -223 l47 -45 -23 42 c-13 24 -59 83
-101 132 -78 89 -99 109 -99 94z"/>
<path d="M4000 2536 c119 -121 235 -214 288 -233 55 -19 -320 313 -408 361 -8
5 46 -53 120 -128z"/>
<path d="M1499 2433 c-111 -92 -244 -236 -279 -302 l-12 -24 30 22 c27 19 319
341 309 341 -2 0 -23 -17 -48 -37z"/>
<path d="M1200 2386 c-147 -73 -313 -184 -435 -291 -44 -39 -18 -23 175 106
97 65 225 145 285 178 134 75 118 79 -25 7z"/>
<path d="M3505 973 c-107 -12 -119 -15 -104 -24 19 -10 701 -17 691 -7 -19 19
-216 38 -382 36 -96 0 -188 -3 -205 -5z"/>
</g>
</svg>